<svg width="1404" height="327" viewBox="0 0 468 109" fill="none" xmlns="http://www.w3.org/2000/svg">
<style>
path {
	color: oklch(0.05 0.046 257.417);
}
</style>
<g clip-path="url(#clip0_21_22)">
<path d="M349.205 17.7209C348.407 18.2558 347.477 19.727 347.011 20.9975C345.948 24.408 347.61 27.9522 352.728 32.7C355.055 34.9068 356.983 37.0466 356.983 37.4479C356.983 39.3871 359.376 37.5147 363.431 32.2319C371.076 22.4018 371.541 21.265 368.616 18.3896C366.622 16.3166 364.295 16.2497 360.972 18.1221L358.445 19.5933L356.584 18.1221C354.523 16.4503 351.266 16.3166 349.205 17.7209ZM356.983 21.8669C357.648 23.0706 358.578 24.0736 358.911 24.0736C359.243 24.0736 360.174 23.0037 360.972 21.7331C363.232 18.1221 367.619 17.9215 367.619 21.4656C367.619 22.9368 358.977 35.3749 357.98 35.4417C357.182 35.4417 351.731 29.9583 350.069 27.4172C349.006 25.7454 348.673 21.6663 349.538 20.3288C351.399 17.5202 354.789 18.189 356.983 21.8669Z" fill="#FF0000" stroke="#FF0000" stroke-width="3"/>
<path d="M38.2244 0.534963C38.025 0.735577 37.892 6.4865 37.892 13.3742V25.8123L32.8398 26.9491C18.0153 30.1589 5.98295 41.5939 1.59545 56.5061C0.0664737 61.7221 0.132951 71.6859 1.66193 77.5706C5.31818 91.7472 17.0847 103.583 31.2443 107.328C34.3687 108.198 45.8693 108.331 106.962 108.331H179.023L178.624 102.982C178.093 96.3614 175.101 87.1331 171.378 80.6466C165.528 70.4822 153.43 60.7859 141.995 57.1748C134.018 54.5669 127.304 54.1656 92.7358 54.1656H60.8267L64.5494 52.5607C70.1335 50.2871 72.5932 48.5485 76.9142 43.9344C81.6341 38.8521 85.0909 32.0313 87.3511 23.4049C89.0131 17.1859 90.4091 7.62331 90.4091 2.47423V-0.0668775L86.2875 0.33435C77.3131 1.27055 67.142 4.54723 61.8239 8.22515L59.5636 9.83006L56.1733 7.08834C54.3784 5.5503 51.3204 3.67791 49.4591 2.87545C46.0687 1.40429 38.8892 -0.0668775 38.2244 0.534963ZM68.8704 28.6877C72.1278 30.1589 76.4489 33.9037 76.4489 35.1742C76.4489 36.4448 73.9892 36.311 70.7318 34.8399C67.8733 33.5025 62.4886 29.089 62.4886 28.019C62.4886 27.0159 66.0119 27.3503 68.8704 28.6877Z" fill="currentColor"/>
<path d="M137.342 0.735572C132.822 1.47115 126.44 4.74784 123.382 7.95766L120.789 10.6325L123.049 12.438C129.963 18.1221 136.677 27.2834 139.536 34.9067C141.198 39.454 141.597 36.5117 141.597 18.3896C141.597 8.29202 141.397 0.0668602 141.131 0.0668602C140.799 0.133731 139.137 0.401216 137.342 0.735572Z" fill="currentColor"/>
<path d="M111.349 27.9522C107.76 29.1558 102.043 34.1043 102.574 35.5755C103.04 36.9798 107.427 36.311 111.084 34.3049C114.341 32.5663 118.33 28.6877 118.33 27.4172C118.33 26.4141 115.139 26.6816 111.349 27.9522Z" fill="currentColor"/>
<path d="M223.364 18.7239C222.101 19.9945 222.034 20.9307 222.034 54.0988C222.034 86.3307 222.101 88.2031 223.297 89.6742C225.026 91.8141 229.014 91.8141 230.743 89.6742C231.873 88.2699 232.006 86.8656 232.006 75.9656V63.7951L235.33 60.5184C237.124 58.7129 238.72 57.3755 238.853 57.5761C238.986 57.7098 244.57 65.2663 251.218 74.3607C257.865 83.4552 263.915 91.0785 264.646 91.2791C268.369 92.4828 272.025 88.4706 270.562 84.6589C270.23 83.7227 264.513 75.5644 257.865 66.4699L245.833 50.0196L254.409 41.1926C269.565 25.6785 271.227 23.7393 271.227 21.5325C271.227 18.7908 269.632 17.3865 266.773 17.3865C264.513 17.3865 263.316 18.4564 248.16 33.5693L232.006 49.7521V34.9067C232.006 20.9307 231.939 19.9945 230.676 18.7239C229.878 17.9215 228.482 17.3865 227.02 17.3865C225.557 17.3865 224.161 17.9215 223.364 18.7239Z" fill="currentColor"/>
<path d="M329.461 18.6571C328.398 19.7939 328.331 22.5356 328.198 48.8828C328.065 80.2454 328.065 80.6466 331.655 85.7288C334.048 89.2061 337.771 91.1454 342.026 91.2123C346.812 91.2791 349.006 89.7411 349.006 86.3307C349.006 83.1877 347.41 81.5828 344.286 81.5828C341.228 81.5828 339.167 80.0448 338.768 77.3699C338.569 76.1663 338.303 62.8589 338.236 47.746C338.037 21.7331 337.97 20.1282 336.774 18.7908C335.112 16.9853 331.057 16.8515 329.461 18.6571Z" fill="currentColor"/>
<path d="M376.527 18.7908C375.331 20.1282 375.264 21.7331 375.264 54.6337V89.0724L376.86 90.3429C378.854 92.0147 380.981 91.9479 383.175 90.2092C384.903 88.8718 384.903 88.6712 384.903 80.6466V72.4883L387.097 70.3485L389.291 68.2086L398.199 79.3092C403.118 85.3945 407.772 90.8779 408.636 91.4129C411.361 93.2184 415.483 90.811 415.483 87.3337C415.483 85.662 413.688 82.9871 406.176 73.7589C401.057 67.473 396.869 62.1233 396.869 61.9896C396.869 61.789 400.924 57.9104 405.91 53.4301C414.486 45.6061 414.885 45.138 414.685 42.9313C414.419 39.8552 411.627 37.5147 409.367 38.5847C408.503 38.9859 402.786 43.8675 396.537 49.4178L385.236 59.5822L384.903 39.5877C384.637 24.0067 384.372 19.3258 383.64 18.5233C382.311 16.8515 378.123 17.0521 376.527 18.7908Z" fill="currentColor"/>
<path d="M288.511 39.7883C281.199 41.8614 275.282 46.9436 272.025 54.0319C270.43 57.4423 270.23 58.5791 270.23 65.5337C270.23 72.7558 270.363 73.4914 272.357 77.7043C274.817 82.9871 278.872 87.2 283.858 89.5405C286.982 91.0117 288.445 91.2791 293.497 91.2791C300.344 91.2791 304.2 90.0755 308.853 86.5313L311.778 84.2577V86.3307C311.778 88.8049 314.371 91.6135 316.631 91.6135C317.495 91.6135 319.024 91.0117 320.022 90.2092L321.75 88.8718V74.9626C321.75 64.2632 321.484 60.2509 320.686 57.4423C318.493 49.8859 312.842 43.5331 305.995 40.8583C300.943 38.8522 293.431 38.4509 288.511 39.7883ZM302.006 49.1503C308.255 51.7583 311.778 57.5092 311.778 65.1994C311.712 75.6313 305.397 82.519 295.824 82.519C278.274 82.519 273.022 57.5092 288.844 49.5515C292.101 47.8798 298.616 47.746 302.006 49.1503Z" fill="currentColor"/>
<path d="M434.961 39.7883C429.842 41.1926 426.651 42.9982 423.261 46.4755C413.622 56.1049 413.289 73.2908 422.463 84.0571C423.926 85.7957 426.585 87.735 429.31 89.0724C433.365 91.0785 434.23 91.2791 440.08 91.2791C445.531 91.2791 446.86 91.0117 450.051 89.4736C452.045 88.5374 454.705 86.7988 455.901 85.5951L458.028 83.5221V86.1969C458.028 91.0117 463.081 93.2853 466.405 89.9417L468.133 88.2031L467.867 73.692C467.601 60.4515 467.468 58.8466 466.072 55.3024C462.349 45.8067 453.774 39.5877 443.603 39.0528C440.279 38.8521 437.155 39.1196 434.961 39.7883ZM449.386 49.7521C458.893 54.5669 461.086 68.6767 453.707 77.4368C448.19 83.9902 437.354 84.5252 431.238 78.5067C427.05 74.3607 425.787 71.3515 425.787 65.1994C425.787 59.3147 426.984 56.1718 430.507 52.5607C435.027 48.0135 443.536 46.6761 449.386 49.7521Z" fill="currentColor"/>
<path d="M354.789 40.6577C353.792 41.7945 353.659 44.4693 353.659 65.4V88.8718L355.454 90.2761C357.648 92.0147 360.706 91.6804 362.501 89.4736C363.564 88.1362 363.697 86.3307 363.498 64.7313C363.298 42.4632 363.232 41.3264 362.035 40.3902C360.174 39.0528 356.119 39.1865 354.789 40.6577Z" fill="currentColor"/>
<path d="M89.4119 45.4724C82.0994 45.8067 81.5676 45.8736 83.0966 46.7429C85.0244 47.8129 89.0795 51.9589 89.0795 52.8951C89.0795 53.2294 89.5449 53.4969 90.0767 53.4969C90.6085 53.4969 91.0739 53.0288 91.0739 52.4939C91.0739 51.9589 91.4062 51.4908 91.7386 51.4908C92.1375 51.4908 92.4034 51.0896 92.4034 50.5546C92.4034 49.4178 95.7937 46.8098 97.3227 46.8098C97.921 46.8098 98.3864 46.3417 98.3864 45.8067C98.3864 45.2718 98.1869 44.8706 97.921 44.9374C97.5886 45.0043 93.7994 45.2049 89.4119 45.4724Z" fill="#FF0000"/>
</g>
<defs>
<clipPath id="clip0_21_22">
<rect width="468" height="109" fill="white"/>
</clipPath>
</defs>
</svg>
