<svg width="48" height="48" viewBox="0 0 48 48" fill="none" xmlns="http://www.w3.org/2000/svg">
<g clip-path="url(#clip0_1_2)">
<rect x="0.499994" y="0.5" width="47" height="47" rx="9.5" stroke="#999999"/>
<g clip-path="url(#clip1_1_2)">
<path d="M11.1768 7.96363V13.0121L9.68231 13.5212C6.29999 14.6667 3.52073 18.8242 2.47194 24.3818C1.81646 27.8606 1.92134 31.2121 2.8128 35.0727C3.59938 38.4242 6.01158 42.3697 8.1878 43.7697L9.73475 44.7879L27.3805 44.9151L45.0262 45.0424L44.8689 43.0061C44.3969 37.2788 42.85 32.4848 40.464 29.2182C37.239 24.8909 35.6921 24.2121 29.111 24.2121C25.5451 24.2121 23.9982 24.0848 23.8671 23.703C23.7622 23.4485 24.0244 22.7273 24.5226 22.0061L25.3354 20.8182H23.5787C21.8482 20.8182 21.8219 20.8606 22.3463 21.5818C22.661 21.9636 23.0543 22.7273 23.2116 23.2364L23.5262 24.2121H19.9079L16.2896 24.1697L17.9152 22.897C19.6195 21.5818 21.0616 19.2485 21.953 16.4485C22.7396 13.9879 23.5 8.72727 23.5 5.75757V3.08484L22.2677 3.29696C20.6158 3.55151 18.6494 4.56969 17.286 5.79999L16.1847 6.81818L15.4506 5.79999C14.4543 4.44242 13.3006 3.55151 12.1469 3.21212L11.1768 2.91515V7.96363ZM18.5969 14.0727C19.3573 14.7091 20.3537 16.1939 20.3537 16.703C20.3537 16.9151 20.039 16.9576 19.6457 16.7879C18.7543 16.4485 16.9451 14.5818 16.9451 14.0303C16.9451 13.4788 17.889 13.4788 18.5969 14.0727Z" fill="#999999"/>
<path d="M34.5122 3.38182C33.4372 3.93333 32.3097 4.99394 31.7067 6.05455L31.1299 7.0303L32.5195 9.27879C33.3061 10.5091 34.3287 12.7152 34.8006 14.2424C35.2988 15.7697 35.7707 17 35.9018 17C36.0067 17 36.0591 13.903 36.0329 10.1273C35.9543 2.66061 35.9543 2.66061 34.5122 3.38182Z" fill="#999999"/>
<path d="M28.9274 13.8182C27.9311 14.3697 26.6463 15.9818 26.6463 16.6606C26.6463 17.1697 27.6427 17.0848 28.2982 16.5333C29.0061 15.9394 30.3171 13.9879 30.3171 13.5212C30.3171 13.0545 30.1073 13.097 28.9274 13.8182Z" fill="#999999"/>
</g>
</g>
<defs>
<clipPath id="clip0_1_2">
<rect width="48" height="48" rx="10" fill="white"/>
</clipPath>
<clipPath id="clip1_1_2">
<rect width="43" height="42" fill="white" transform="translate(1.99999 3)"/>
</clipPath>
</defs>
</svg>
